<svg xmlns="http://www.w3.org/2000/svg" viewBox="0 0 32 32">
  <path fill="#fff" d="M16 .5C7.44.5.5 7.44.5 16c0 2.82.74 5.56 2.15 7.98L.5 31.5l7.7-2.1A15.4 15.4 0 0 0 16 31.5C24.56 31.5 31.5 24.56 31.5 16S24.56.5 16 .5zm0 28c-2.5 0-4.94-.67-7.07-1.94l-.5-.3-4.57 1.25 1.22-4.45-.32-.52A12.9 12.9 0 0 1 3 16c0-7.17 5.83-13 13-13s13 5.83 13 13-5.83 13-13 13zm7.2-9.8c-.4-.2-2.36-1.17-2.73-1.3-.37-.14-.64-.2-.9.2-.27.4-1.04 1.3-1.28 1.57-.24.27-.47.3-.87.1-.4-.2-1.7-.63-3.24-2.02-1.2-1.07-2.02-2.4-2.26-2.8-.24-.4-.03-.62.18-.82.18-.18.4-.47.6-.7.2-.23.27-.4.4-.67.13-.27.07-.5-.03-.7-.1-.2-.9-2.17-1.23-2.97-.32-.8-.66-.7-.9-.7-.23 0-.5-.03-.77-.03-.27 0-.7.1-1.07.5-.37.4-1.4 1.37-1.4 3.33 0 1.97 1.43 3.87 1.63 4.13.2.27 2.8 4.27 6.8 6 4 1.73 4 1.17 4.7 1.1.7-.07 2.36-.97 2.7-1.9.33-.93.33-1.73.23-1.9-.1-.17-.37-.27-.77-.47z"/>
</svg>